HIERARCHY
ROOT Pelvis
{
	OFFSET 0.000000 0.000000 0.000000
	CHANNELS 6 Xposition Yposition Zposition Xrotation Yrotation Zrotation
	JOINT LeftUpLeg_virtual
	{
		OFFSET 0.000000 0.000000 0.000000
		CHANNELS 3 Xrotation Yrotation Zrotation
		JOINT LeftUpLeg
		{
			OFFSET 18.735201 -5.666702 -4.541200
			CHANNELS 3 Xrotation Yrotation Zrotation
			JOINT LeftLeg
			{
				OFFSET -0.021200 -31.938179 0.493100
				CHANNELS 3 Xrotation Yrotation Zrotation
				JOINT LeftFoot
				{
					OFFSET 0.021200 -31.938179 -4.336299
					CHANNELS 3 Xrotation Yrotation Zrotation
					JOINT LeftToeBase
					{
						OFFSET 0.943001 -26.722000 15.023500
						CHANNELS 3 Xrotation Yrotation Zrotation
						End Site
						{
							OFFSET 0 0 0
						}
					}
				}
			}
		}
	}
	JOINT RightUpLeg_virtual
	{
		OFFSET 0.000000 0.000000 0.000000
		CHANNELS 3 Xrotation Yrotation Zrotation
		JOINT RightUpLeg
		{
			OFFSET -18.735201 -5.666702 -4.541200
			CHANNELS 3 Xrotation Yrotation Zrotation
			JOINT RightLeg
			{
				OFFSET 0.018946 -31.938133 0.493100
				CHANNELS 3 Xrotation Yrotation Zrotation
				JOINT RightFoot
				{
					OFFSET -0.018946 -31.938126 -4.336299
					CHANNELS 3 Xrotation Yrotation Zrotation
					JOINT RightToeBase
					{
						OFFSET -0.943001 -26.722004 15.023500
						CHANNELS 3 Xrotation Yrotation Zrotation
						End Site
						{
							OFFSET 0 0 0
						}
					}
				}
			}
		}
	}
	JOINT Hips_virtual
	{
		OFFSET 0.000000 0.000000 0.000000
		CHANNELS 3 Xrotation Yrotation Zrotation
		JOINT Hips
		{
			OFFSET -0.000000 -0.000000 -0.000000
			CHANNELS 3 Xrotation Yrotation Zrotation
			JOINT Spine
			{
				OFFSET 0.000000 10.199997 -0.299500
				CHANNELS 3 Xrotation Yrotation Zrotation
				JOINT Spine1
				{
					OFFSET 0.000000 11.900002 -1.516600
					CHANNELS 3 Xrotation Yrotation Zrotation
					JOINT Spine2
					{
						OFFSET 0.000000 13.600006 -2.842500
						CHANNELS 3 Xrotation Yrotation Zrotation
						JOINT Neck_virtual
						{
							OFFSET 0.000000 0.000000 0.000000
							CHANNELS 3 Xrotation Yrotation Zrotation
							JOINT Neck
							{
								OFFSET 0.000000 9.624100 -2.890100
								CHANNELS 3 Xrotation Yrotation Zrotation
								JOINT Head
								{
									OFFSET 0.000000 14.068802 -1.351900
									CHANNELS 3 Xrotation Yrotation Zrotation
									End Site
									{
										OFFSET 0 0 0
									}
								}
							}
						}
						JOINT LeftShoulder_virtual
						{
							OFFSET 0.000000 0.000000 0.000000
							CHANNELS 3 Xrotation Yrotation Zrotation
							JOINT LeftShoulder
							{
								OFFSET 15.263000 10.923401 -0.547700
								CHANNELS 3 Xrotation Yrotation Zrotation
								JOINT LeftArm
								{
									OFFSET 25.438599 -2.830597 -13.032500
									CHANNELS 3 Xrotation Yrotation Zrotation
									JOINT LeftForeArm
									{
										OFFSET 29.960503 0.000000 0.000000
										CHANNELS 3 Xrotation Yrotation Zrotation
										JOINT LeftHand
										{
											OFFSET 27.849251 0.000000 0.000000
											CHANNELS 3 Xrotation Yrotation Zrotation
											End Site
											{
												OFFSET 0 0 0
											}
										}
									}
								}
							}
						}
						JOINT RightShoulder_virtual
						{
							OFFSET 0.000000 0.000000 0.000000
							CHANNELS 3 Xrotation Yrotation Zrotation
							JOINT RightShoulder
							{
								OFFSET -15.263000 10.923401 -0.547700
								CHANNELS 3 Xrotation Yrotation Zrotation
								JOINT RightArm
								{
									OFFSET -25.438599 -2.830597 -13.032500
									CHANNELS 3 Xrotation Yrotation Zrotation
									JOINT RightForeArm
									{
										OFFSET -29.960503 0.000000 0.000000
										CHANNELS 3 Xrotation Yrotation Zrotation
										JOINT RightHand
										{
											OFFSET -27.849251 0.000000 0.000000
											CHANNELS 3 Xrotation Yrotation Zrotation
											End Site
											{
												OFFSET 0 0 0
											}
										}
									}
								}
							}
						}
					}
				}
			}
		}
	}
}
MOTION
Frames: 8
Frame Time: 0.03333333
-2.374379 75.016350 24.910763 0.000000 0.000000 0.000000 -0.592050 -21.214320 -6.937011 -43.913417 7.275407 10.742218 69.185110 -22.701464 1.040256 8.464099 -24.989960 -24.874420 0.000000 0.000000 0.000000 12.602188 -11.810202 6.373948 -15.459197 -10.417633 -10.100859 31.094839 7.765895 -10.389106 -19.273093 8.949881 -0.908355 0.000000 0.000000 0.000000 29.217808 48.068337 -14.207986 -20.409398 3.978164 -7.879033 7.619675 20.085918 4.117662 4.989309 10.915052 2.112389 0.000000 0.000000 0.000000 8.420316 6.680211 -1.418851 0.773637 -1.170180 1.005217 0.000000 0.000000 0.000000 6.307676 14.788589 -1.890767 -5.651123 5.726878 9.394359 38.971731 -6.336980 -11.652307 30.427304 -36.094452 16.256535 0.000000 0.000000 0.000000 3.326841 11.294810 -2.047799 -7.799292 19.815738 -2.694477 -57.607810 -3.986864 -3.187586 -17.504906 -11.529763 -4.151821 0.000000 0.000000 0.000000 
-2.151218 75.195183 24.800146 0.000000 0.000000 0.000000 -0.981964 -21.274767 -7.091288 -44.248298 7.225581 10.613130 68.935405 -22.412987 1.127383 8.436464 -24.753464 -24.409472 0.000000 0.000000 0.000000 12.536526 -10.652079 5.850820 -15.259262 -10.020396 -10.408921 31.093193 8.057292 -10.370092 -19.313664 9.210565 -0.685361 0.000000 0.000000 0.000000 28.704007 47.510847 -13.776149 -20.378870 3.414939 -7.975311 7.594981 19.807890 4.001598 4.964494 10.766219 2.035691 0.000000 0.000000 0.000000 8.413007 6.604389 -1.391459 0.768682 -1.180782 1.016370 0.000000 0.000000 0.000000 6.366388 14.659929 -1.954895 -5.386341 5.969598 8.887140 39.849376 -4.632350 -11.497709 29.941886 -34.214258 15.881730 0.000000 0.000000 0.000000 3.238439 11.222543 -2.206797 -7.627871 20.015082 -3.285216 -58.028918 -4.164311 -1.402419 -17.633600 -10.445885 -3.433881 0.000000 0.000000 0.000000 
-1.901286 75.395302 24.707153 0.000000 0.000000 0.000000 -1.394382 -21.325451 -7.217652 -44.609082 7.159946 10.512429 68.643435 -22.087684 1.177269 8.374592 -24.448689 -23.955309 0.000000 0.000000 0.000000 12.517353 -9.581705 5.276380 -15.024973 -9.642706 -10.797852 31.111894 8.291487 -10.402604 -19.367001 9.432081 -0.562505 0.000000 0.000000 0.000000 28.193143 46.969609 -13.341122 -20.236227 2.932734 -7.970612 7.540911 19.518410 3.846839 4.924697 10.613655 1.932121 0.000000 0.000000 0.000000 8.423352 6.532788 -1.358153 0.767703 -1.187711 1.036535 0.000000 0.000000 0.000000 6.470779 14.539967 -2.061806 -5.061018 6.277160 8.247391 41.096429 -2.715360 -11.541456 29.525583 -32.007667 15.443444 0.000000 0.000000 0.000000 3.168658 11.137418 -2.382417 -7.422686 20.182046 -3.883662 -58.505447 -4.191766 0.585347 -17.810413 -9.122907 -2.639776 0.000000 0.000000 0.000000 
-1.677604 75.662033 24.724285 0.000000 0.000000 0.000000 -1.823841 -21.455289 -7.328761 -44.979227 7.064571 10.419919 68.320374 -21.731872 1.194040 8.285830 -24.086681 -23.515776 0.000000 0.000000 0.000000 12.570112 -8.308695 4.760790 -14.666132 -9.232393 -11.085275 31.273688 8.566045 -10.349022 -19.309956 9.657988 -0.266011 0.000000 0.000000 0.000000 27.592923 46.278374 -12.803300 -20.019221 2.215949 -7.879876 7.470955 19.216105 3.689467 4.869274 10.456050 1.837290 0.000000 0.000000 0.000000 8.404186 6.452052 -1.329772 0.746103 -1.197803 1.054163 0.000000 0.000000 0.000000 6.571163 14.421594 -2.164479 -4.722823 6.604788 7.609089 42.470926 -0.542542 -11.563529 29.146405 -29.574094 15.074192 0.000000 0.000000 0.000000 3.118408 11.028389 -2.554230 -7.198422 20.253386 -4.426077 -58.986354 -4.010722 2.712685 -18.013219 -7.486306 -1.794630 0.000000 0.000000 0.000000 
-1.512498 75.948929 24.686386 0.000000 0.000000 0.000000 -2.233913 -21.738931 -7.362380 -45.334762 6.903985 10.391784 67.988878 -21.347251 1.218435 8.191014 -23.694719 -23.037596 0.000000 0.000000 0.000000 12.635026 -7.024861 4.289187 -14.302377 -8.827282 -11.325796 31.476568 8.855974 -10.255322 -19.244517 9.871139 0.118280 0.000000 0.000000 0.000000 26.909692 45.389305 -12.157548 -19.721384 1.183578 -7.710451 7.479585 18.860932 3.449681 4.848828 10.265649 1.695814 0.000000 0.000000 0.000000 8.309443 6.323872 -1.390074 0.681774 -1.231689 1.021667 0.000000 0.000000 0.000000 6.649716 14.290598 -2.231791 -4.380686 6.892945 7.091251 43.936899 1.951099 -11.383592 28.808457 -26.908734 14.863684 0.000000 0.000000 0.000000 3.339035 10.894749 -2.774244 -6.664126 20.254480 -5.075284 -58.539707 -3.333704 4.947602 -17.869679 -5.281702 -0.930723 0.000000 0.000000 0.000000 
-1.511343 76.349243 24.749811 0.000000 0.000000 0.000000 -2.577963 -22.121494 -7.324897 -45.621292 6.703510 10.415598 67.631474 -20.897681 1.226455 8.114703 -23.237304 -22.519062 0.000000 0.000000 0.000000 12.812582 -5.754477 3.838588 -13.806174 -8.446478 -11.552966 31.777038 9.173052 -10.167561 -19.134053 10.108511 0.533224 0.000000 0.000000 0.000000 26.184316 44.204332 -11.390222 -19.126546 -0.326892 -7.427792 7.559640 18.468813 3.150239 4.880002 10.059871 1.520206 0.000000 0.000000 0.000000 8.170352 6.145622 -1.577073 0.585207 -1.286932 0.917979 0.000000 0.000000 0.000000 6.732871 14.157899 -2.290972 -4.020903 7.202309 6.589311 45.604077 4.513249 -11.271976 28.548070 -24.140515 14.714067 0.000000 0.000000 0.000000 3.413533 10.736886 -2.972234 -6.302000 20.154550 -5.629022 -58.588113 -2.395094 7.345975 -17.951832 -2.624364 -0.004396 0.000000 0.000000 0.000000 
-1.574337 76.874451 24.557301 0.000000 0.000000 0.000000 -2.834821 -22.695281 -7.267931 -45.808856 6.470774 10.439002 67.269433 -20.407215 1.235899 8.046931 -22.739971 -21.961850 0.000000 0.000000 0.000000 13.075680 -4.546129 3.376393 -13.209377 -8.093862 -11.803664 32.167469 9.515285 -10.080011 -18.968721 10.371198 0.979298 0.000000 0.000000 0.000000 25.477289 42.841740 -10.609854 -18.349800 -1.940965 -7.239931 7.628757 18.069001 2.823199 4.899371 9.843626 1.319877 0.000000 0.000000 0.000000 8.112018 5.970456 -1.886813 0.519097 -1.332403 0.752726 0.000000 0.000000 0.000000 6.789609 14.022532 -2.328533 -3.666230 7.514379 6.140962 47.457162 7.068746 -11.223786 28.433478 -21.422409 14.697532 0.000000 0.000000 0.000000 3.512826 10.553156 -3.172105 -5.917554 19.941666 -6.143322 -58.473038 -1.118189 9.686641 -17.994128 0.435424 0.880845 0.000000 0.000000 0.000000 
-1.569337 77.427757 24.244440 0.000000 0.000000 0.000000 -3.026601 -23.469630 -7.189379 -45.913276 6.195332 10.462071 66.865141 -19.851967 1.232281 7.959638 -22.164664 -21.359074 0.000000 0.000000 0.000000 13.435705 -3.395543 2.895599 -12.490009 -7.770246 -12.080523 32.650224 9.909250 -9.991116 -18.736554 10.689713 1.471802 0.000000 0.000000 0.000000 24.796583 41.406420 -9.829308 -17.458250 -3.360701 -6.970535 7.682398 17.679612 2.482190 4.894860 9.631211 1.108304 0.000000 0.000000 0.000000 8.095328 5.797643 -2.212976 0.470302 -1.375369 0.582433 0.000000 0.000000 0.000000 6.817738 13.889596 -2.361771 -3.321258 7.846509 5.680592 49.336997 9.424956 -11.494123 28.386770 -18.891743 14.701238 0.000000 0.000000 0.000000 3.652012 10.354184 -3.355254 -5.515889 19.641223 -6.515892 -58.171895 0.501324 11.981174 -17.989808 3.906276 1.723053 0.000000 0.000000 0.000000 
